<?xml version="1.0" encoding="UTF-8"?>
<!DOCTYPE svg PUBLIC "-//W3C//DTD SVG 1.1//EN" "http://www.w3.org/Graphics/SVG/1.1/DTD/svg11.dtd">
<svg xmlns="http://www.w3.org/2000/svg" version="1.1" width="360px" height="360px" style="shape-rendering:geometricPrecision; text-rendering:geometricPrecision; image-rendering:optimizeQuality; fill-rule:evenodd; clip-rule:evenodd" xmlns:xlink="http://www.w3.org/1999/xlink">
<g><path style="opacity:0.959" fill="#000000" d="M 166.5,107.5 C 206.481,103.895 233.981,120.562 249,157.5C 258.188,198.668 244.021,228.501 206.5,247C 170.062,258.519 140.562,249.019 118,218.5C 107.577,200.765 104.577,181.765 109,161.5C 118.063,132.6 137.229,114.6 166.5,107.5 Z M 158.5,147.5 C 167.772,146.304 174.772,149.638 179.5,157.5C 186.797,146.923 196.13,144.756 207.5,151C 215.461,162.307 222.628,174.141 229,186.5C 232.975,200.849 227.642,209.183 213,211.5C 205.94,211.222 200.44,208.222 196.5,202.5C 188.679,212.114 179.346,213.948 168.5,208C 166.649,206.316 164.982,204.483 163.5,202.5C 155.708,212.126 146.374,213.959 135.5,208C 129.732,202.137 127.899,195.303 130,187.5C 136,176.833 142,166.167 148,155.5C 150.855,151.789 154.355,149.123 158.5,147.5 Z"/></g>
<g><path style="opacity:0.898" fill="#000000" d="M 158.5,153.5 C 172.131,152.295 177.298,158.295 174,171.5C 170.333,177.5 166.667,183.5 163,189.5C 158.036,181.904 153.869,173.904 150.5,165.5C 151.234,160.118 153.901,156.118 158.5,153.5 Z"/></g>
<g><path style="opacity:0.9" fill="#000000" d="M 191.5,153.5 C 203.771,151.938 209.271,157.272 208,169.5C 204.655,176.202 200.821,182.535 196.5,188.5C 192.431,182.706 188.597,176.706 185,170.5C 182.788,163.015 184.954,157.348 191.5,153.5 Z"/></g>
<g><path style="opacity:0.888" fill="#000000" d="M 144.5,171.5 C 145.496,171.414 146.329,171.748 147,172.5C 151.184,180.204 155.35,187.87 159.5,195.5C 155.679,205.248 149.012,208.081 139.5,204C 134.453,199.347 133.286,193.847 136,187.5C 139.54,182.482 142.374,177.148 144.5,171.5 Z"/></g>
<g><path style="opacity:0.886" fill="#000000" d="M 212.5,171.5 C 213.496,171.414 214.329,171.748 215,172.5C 219.186,179.37 222.686,186.537 225.5,194C 222.453,204.857 215.787,208.19 205.5,204C 203.131,201.43 201.131,198.596 199.5,195.5C 204.367,187.765 208.7,179.765 212.5,171.5 Z"/></g>
<g><path style="opacity:0.883" fill="#000000" d="M 178.5,173.5 C 179.496,173.414 180.329,173.748 181,174.5C 185.167,181.5 189.333,188.5 193.5,195.5C 189.312,205.457 182.312,208.291 172.5,204C 169.639,201.781 167.639,198.947 166.5,195.5C 170.958,188.386 174.958,181.052 178.5,173.5 Z"/></g>
</svg>
